{
  "accessors": [
    {
      "bufferView": 2,
      "componentType": 5126,
      "count": 65532,
      "max": [
        0.3496139943599701,
        0.879692018032074,
        0.2143079936504364
      ],
      "min": [
        -0.3873719871044159,
        -0.94725102186203,
        -0.20593999326229095
      ],
      "type": "VEC3"
    },
    {
      "bufferView": 2,
      "byteOffset": 786384,
      "componentType": 5126,
      "count": 65532,
      "max": [
        0.9999877214431763,
        0.9994202256202698,
        0.9999823570251465
      ],
      "min": [
        -0.9999967813491821,
        -0.9997327923774719,
        -0.9999955892562866
      ],
      "type": "VEC3"
    },
    {
      "bufferView": 1,
      "componentType": 5126,
      "count": 65532,
      "max": [
        0.9999539852142334,
        0.9988009929656982
      ],
      "min": [
        0.0006629999843426049,
        0.0006399750709533691
      ],
      "type": "VEC2"
    },
    {
      "bufferView": 1,
      "byteOffset": 524256,
      "componentType": 5126,
      "count": 65532,
      "max": [
        0.9999539852142334,
        0.9988009929656982
      ],
      "min": [
        0.0006629999843426049,
        0.0006399750709533691
      ],
      "type": "VEC2"
    },
    {
      "bufferView": 1,
      "byteOffset": 1048512,
      "componentType": 5126,
      "count": 65532,
      "max": [
        0.9999539852142334,
        0.9988009929656982
      ],
      "min": [
        0.0006629999843426049,
        0.0006399750709533691
      ],
      "type": "VEC2"
    },
    {
      "bufferView": 1,
      "byteOffset": 1572768,
      "componentType": 5126,
      "count": 65532,
      "max": [
        0.9999539852142334,
        0.9988009929656982
      ],
      "min": [
        0.0006629999843426049,
        0.0006399750709533691
      ],
      "type": "VEC2"
    },
    {
      "bufferView": 0,
      "componentType": 5125,
      "count": 322188,
      "type": "SCALAR"
    },
    {
      "bufferView": 2,
      "byteOffset": 1572768,
      "componentType": 5126,
      "count": 65532,
      "max": [
        0.38522300124168396,
        0.9481920003890991,
        0.12757599353790283
      ],
      "min": [
        -0.3861989974975586,
        -0.9502379894256592,
        -0.16389399766921997
      ],
      "type": "VEC3"
    },
    {
      "bufferView": 2,
      "byteOffset": 2359152,
      "componentType": 5126,
      "count": 65532,
      "max": [
        0.9999617338180542,
        0.9996728301048279,
        0.9999932050704956
      ],
      "min": [
        -0.9999983310699463,
        -0.999990701675415,
        -0.9999226331710815
      ],
      "type": "VEC3"
    },
    {
      "bufferView": 1,
      "byteOffset": 2097024,
      "componentType": 5126,
      "count": 65532,
      "max": [
        0.9999619722366333,
        0.999439001083374
      ],
      "min": [
        0.0005169999785721302,
        8.89897346496582e-05
      ],
      "type": "VEC2"
    },
    {
      "bufferView": 1,
      "byteOffset": 2621280,
      "componentType": 5126,
      "count": 65532,
      "max": [
        0.9999619722366333,
        0.999439001083374
      ],
      "min": [
        0.0005169999785721302,
        8.89897346496582e-05
      ],
      "type": "VEC2"
    },
    {
      "bufferView": 1,
      "byteOffset": 3145536,
      "componentType": 5126,
      "count": 65532,
      "max": [
        0.9999619722366333,
        0.999439001083374
      ],
      "min": [
        0.0005169999785721302,
        8.89897346496582e-05
      ],
      "type": "VEC2"
    },
    {
      "bufferView": 1,
      "byteOffset": 3669792,
      "componentType": 5126,
      "count": 65532,
      "max": [
        0.9999619722366333,
        0.999439001083374
      ],
      "min": [
        0.0005169999785721302,
        8.89897346496582e-05
      ],
      "type": "VEC2"
    },
    {
      "bufferView": 0,
      "byteOffset": 1288752,
      "componentType": 5125,
      "count": 297924,
      "type": "SCALAR"
    },
    {
      "bufferView": 2,
      "byteOffset": 3145536,
      "componentType": 5126,
      "count": 65532,
      "max": [
        0.3837060034275055,
        0.9481920003890991,
        0.03644099831581116
      ],
      "min": [
        -0.3865950107574463,
        -0.9484850168228149,
        -0.1841910034418106
      ],
      "type": "VEC3"
    },
    {
      "bufferView": 2,
      "byteOffset": 3931920,
      "componentType": 5126,
      "count": 65532,
      "max": [
        0.9999686479568481,
        0.9992372393608093,
        0.9999428987503052
      ],
      "min": [
        -0.9999788999557495,
        -0.999869704246521,
        -0.9999404549598694
      ],
      "type": "VEC3"
    },
    {
      "bufferView": 1,
      "byteOffset": 4194048,
      "componentType": 5126,
      "count": 65532,
      "max": [
        0.9999780058860779,
        0.9994069933891296
      ],
      "min": [
        0.0007789999945089221,
        6.699562072753906e-05
      ],
      "type": "VEC2"
    },
    {
      "bufferView": 1,
      "byteOffset": 4718304,
      "componentType": 5126,
      "count": 65532,
      "max": [
        0.9999780058860779,
        0.9994069933891296
      ],
      "min": [
        0.0007789999945089221,
        6.699562072753906e-05
      ],
      "type": "VEC2"
    },
    {
      "bufferView": 1,
      "byteOffset": 5242560,
      "componentType": 5126,
      "count": 65532,
      "max": [
        0.9999780058860779,
        0.9994069933891296
      ],
      "min": [
        0.0007789999945089221,
        6.699562072753906e-05
      ],
      "type": "VEC2"
    },
    {
      "bufferView": 1,
      "byteOffset": 5766816,
      "componentType": 5126,
      "count": 65532,
      "max": [
        0.9999780058860779,
        0.9994069933891296
      ],
      "min": [
        0.0007789999945089221,
        6.699562072753906e-05
      ],
      "type": "VEC2"
    },
    {
      "bufferView": 0,
      "byteOffset": 2480448,
      "componentType": 5125,
      "count": 311598,
      "type": "SCALAR"
    },
    {
      "bufferView": 2,
      "byteOffset": 4718304,
      "componentType": 5126,
      "count": 65532,
      "max": [
        0.2397480010986328,
        0.9222930073738098,
        -0.070032998919487
      ],
      "min": [
        -0.24618099629878998,
        -0.8993809819221497,
        -0.18994399905204773
      ],
      "type": "VEC3"
    },
    {
      "bufferView": 2,
      "byteOffset": 5504688,
      "componentType": 5126,
      "count": 65532,
      "max": [
        0.9999954700469971,
        0.9993318319320679,
        0.9999810457229614
      ],
      "min": [
        -0.9999911785125732,
        -0.9999663829803467,
        -0.9999955892562866
      ],
      "type": "VEC3"
    },
    {
      "bufferView": 1,
      "byteOffset": 6291072,
      "componentType": 5126,
      "count": 65532,
      "max": [
        0.9999889731407166,
        0.9998070001602173
      ],
      "min": [
        0.0001740000006975606,
        0.00011998414993286133
      ],
      "type": "VEC2"
    },
    {
      "bufferView": 1,
      "byteOffset": 6815328,
      "componentType": 5126,
      "count": 65532,
      "max": [
        0.9999889731407166,
        0.9998070001602173
      ],
      "min": [
        0.0001740000006975606,
        0.00011998414993286133
      ],
      "type": "VEC2"
    },
    {
      "bufferView": 1,
      "byteOffset": 7339584,
      "componentType": 5126,
      "count": 65532,
      "max": [
        0.9999889731407166,
        0.9998070001602173
      ],
      "min": [
        0.0001740000006975606,
        0.00011998414993286133
      ],
      "type": "VEC2"
    },
    {
      "bufferView": 1,
      "byteOffset": 7863840,
      "componentType": 5126,
      "count": 65532,
      "max": [
        0.9999889731407166,
        0.9998070001602173
      ],
      "min": [
        0.0001740000006975606,
        0.00011998414993286133
      ],
      "type": "VEC2"
    },
    {
      "bufferView": 0,
      "byteOffset": 3726840,
      "componentType": 5125,
      "count": 286200,
      "type": "SCALAR"
    },
    {
      "bufferView": 2,
      "byteOffset": 6291072,
      "componentType": 5126,
      "count": 65532,
      "max": [
        0.17765699326992035,
        0.8696640133857727,
        -0.0903249979019165
      ],
      "min": [
        -0.18604899942874908,
        -0.9400240182876587,
        -0.2062550038099289
      ],
      "type": "VEC3"
    },
    {
      "bufferView": 2,
      "byteOffset": 7077456,
      "componentType": 5126,
      "count": 65532,
      "max": [
        0.9999774694442749,
        0.9979036450386047,
        0.9999816417694092
      ],
      "min": [
        -0.9999991655349731,
        -0.9999261498451233,
        -0.9999657869338989
      ],
      "type": "VEC3"
    },
    {
      "bufferView": 1,
      "byteOffset": 8388096,
      "componentType": 5126,
      "count": 65532,
      "max": [
        0.9999709725379944,
        0.9996349811553955
      ],
      "min": [
        0.00022200000239536166,
        0.00011199712753295898
      ],
      "type": "VEC2"
    },
    {
      "bufferView": 1,
      "byteOffset": 8912352,
      "componentType": 5126,
      "count": 65532,
      "max": [
        0.9999709725379944,
        0.9996349811553955
      ],
      "min": [
        0.00022200000239536166,
        0.00011199712753295898
      ],
      "type": "VEC2"
    },
    {
      "bufferView": 1,
      "byteOffset": 9436608,
      "componentType": 5126,
      "count": 65532,
      "max": [
        0.9999709725379944,
        0.9996349811553955
      ],
      "min": [
        0.00022200000239536166,
        0.00011199712753295898
      ],
      "type": "VEC2"
    },
    {
      "bufferView": 1,
      "byteOffset": 9960864,
      "componentType": 5126,
      "count": 65532,
      "max": [
        0.9999709725379944,
        0.9996349811553955
      ],
      "min": [
        0.00022200000239536166,
        0.00011199712753295898
      ],
      "type": "VEC2"
    },
    {
      "bufferView": 0,
      "byteOffset": 4871640,
      "componentType": 5125,
      "count": 248181,
      "type": "SCALAR"
    },
    {
      "bufferView": 2,
      "byteOffset": 7863840,
      "componentType": 5126,
      "count": 23245,
      "max": [
        0.22606900334358215,
        0.9191989898681641,
        -0.07993099838495255
      ],
      "min": [
        -0.22751900553703308,
        -0.9461349844932556,
        -0.12769900262355804
      ],
      "type": "VEC3"
    },
    {
      "bufferView": 2,
      "byteOffset": 8142780,
      "componentType": 5126,
      "count": 23245,
      "max": [
        0.9999877214431763,
        0.9989392161369324,
        0.999993085861206
      ],
      "min": [
        -0.9999549388885498,
        -0.9993046522140503,
        -0.9999404549598694
      ],
      "type": "VEC3"
    },
    {
      "bufferView": 1,
      "byteOffset": 10485120,
      "componentType": 5126,
      "count": 23245,
      "max": [
        0.9999459981918335,
        0.999779999256134
      ],
      "min": [
        0.00023700000019744039,
        7.897615432739258e-05
      ],
      "type": "VEC2"
    },
    {
      "bufferView": 1,
      "byteOffset": 10671080,
      "componentType": 5126,
      "count": 23245,
      "max": [
        0.9999459981918335,
        0.999779999256134
      ],
      "min": [
        0.00023700000019744039,
        7.897615432739258e-05
      ],
      "type": "VEC2"
    },
    {
      "bufferView": 1,
      "byteOffset": 10857040,
      "componentType": 5126,
      "count": 23245,
      "max": [
        0.9999459981918335,
        0.999779999256134
      ],
      "min": [
        0.00023700000019744039,
        7.897615432739258e-05
      ],
      "type": "VEC2"
    },
    {
      "bufferView": 1,
      "byteOffset": 11043000,
      "componentType": 5126,
      "count": 23245,
      "max": [
        0.9999459981918335,
        0.999779999256134
      ],
      "min": [
        0.00023700000019744039,
        7.897615432739258e-05
      ],
      "type": "VEC2"
    },
    {
      "bufferView": 0,
      "byteOffset": 5864364,
      "componentType": 5125,
      "count": 84591,
      "type": "SCALAR"
    }
  ],
  "asset": {
    "extras": {
      "author": "Zizian1987 (https://sketchfab.com/493caf85284a49b4a090c9c6eb1935)",
      "license": "CC-BY-4.0 (http://creativecommons.org/licenses/by/4.0/)",
      "source": "https://sketchfab.com/3d-models/seren-5483fb1e7d4b4bbb938a8fed71613243",
      "title": "Seren"
    },
    "generator": "Sketchfab-16.99.0",
    "version": "2.0"
  },
  "bufferViews": [
    {
      "buffer": 0,
      "byteLength": 6202728,
      "name": "floatBufferViews",
      "target": 34963
    },
    {
      "buffer": 0,
      "byteLength": 11228960,
      "byteOffset": 6202728,
      "byteStride": 8,
      "name": "floatBufferViews",
      "target": 34962
    },
    {
      "buffer": 0,
      "byteLength": 8421720,
      "byteOffset": 17431688,
      "byteStride": 12,
      "name": "floatBufferViews",
      "target": 34962
    }
  ],
  "buffers": [
    {
      "byteLength": 25853408,
      "uri": "scene.bin"
    }
  ],
  "images": [
    {
      "uri": "textures/Material_0_baseColor.png"
    },
    {
      "uri": "textures/Material_0_metallicRoughness.png"
    }
  ],
  "materials": [
    {
      "doubleSided": true,
      "name": "Material_0",
      "pbrMetallicRoughness": {
        "baseColorTexture": {
          "index": 0
        },
        "metallicRoughnessTexture": {
          "index": 1,
          "texCoord": 1
        }
      }
    }
  ],
  "meshes": [
    {
      "name": "Object_0",
      "primitives": [
        {
          "attributes": {
            "NORMAL": 1,
            "POSITION": 0,
            "TEXCOORD_0": 2,
            "TEXCOORD_1": 3,
            "TEXCOORD_2": 4,
            "TEXCOORD_3": 5
          },
          "indices": 6,
          "material": 0,
          "mode": 4
        }
      ]
    },
    {
      "name": "Object_1",
      "primitives": [
        {
          "attributes": {
            "NORMAL": 8,
            "POSITION": 7,
            "TEXCOORD_0": 9,
            "TEXCOORD_1": 10,
            "TEXCOORD_2": 11,
            "TEXCOORD_3": 12
          },
          "indices": 13,
          "material": 0,
          "mode": 4
        }
      ]
    },
    {
      "name": "Object_2",
      "primitives": [
        {
          "attributes": {
            "NORMAL": 15,
            "POSITION": 14,
            "TEXCOORD_0": 16,
            "TEXCOORD_1": 17,
            "TEXCOORD_2": 18,
            "TEXCOORD_3": 19
          },
          "indices": 20,
          "material": 0,
          "mode": 4
        }
      ]
    },
    {
      "name": "Object_3",
      "primitives": [
        {
          "attributes": {
            "NORMAL": 22,
            "POSITION": 21,
            "TEXCOORD_0": 23,
            "TEXCOORD_1": 24,
            "TEXCOORD_2": 25,
            "TEXCOORD_3": 26
          },
          "indices": 27,
          "material": 0,
          "mode": 4
        }
      ]
    },
    {
      "name": "Object_4",
      "primitives": [
        {
          "attributes": {
            "NORMAL": 29,
            "POSITION": 28,
            "TEXCOORD_0": 30,
            "TEXCOORD_1": 31,
            "TEXCOORD_2": 32,
            "TEXCOORD_3": 33
          },
          "indices": 34,
          "material": 0,
          "mode": 4
        }
      ]
    },
    {
      "name": "Object_5",
      "primitives": [
        {
          "attributes": {
            "NORMAL": 36,
            "POSITION": 35,
            "TEXCOORD_0": 37,
            "TEXCOORD_1": 38,
            "TEXCOORD_2": 39,
            "TEXCOORD_3": 40
          },
          "indices": 41,
          "material": 0,
          "mode": 4
        }
      ]
    }
  ],
  "nodes": [
    {
      "children": [
        1
      ],
      "matrix": [
        1.0,
        0.0,
        0.0,
        0.0,
        0.0,
        2.220446049250313e-16,
        -1.0,
        0.0,
        0.0,
        1.0,
        2.220446049250313e-16,
        0.0,
        0.0,
        0.0,
        0.0,
        1.0
      ],
      "name": "Sketchfab_model"
    },
    {
      "children": [
        2
      ],
      "name": "root"
    },
    {
      "children": [
        3
      ],
      "matrix": [
        1.0,
        0.0,
        0.0,
        0.0,
        0.0,
        2.220446049250313e-16,
        1.0,
        0.0,
        0.0,
        -1.0,
        2.220446049250313e-16,
        0.0,
        0.0,
        0.0,
        0.0,
        1.0
      ],
      "name": "GLTF_SceneRootNode"
    },
    {
      "children": [
        4,
        5,
        6,
        7,
        8,
        9
      ],
      "name": "Mesh_0_0"
    },
    {
      "mesh": 0,
      "name": "Object_4"
    },
    {
      "mesh": 1,
      "name": "Object_5"
    },
    {
      "mesh": 2,
      "name": "Object_6"
    },
    {
      "mesh": 3,
      "name": "Object_7"
    },
    {
      "mesh": 4,
      "name": "Object_8"
    },
    {
      "mesh": 5,
      "name": "Object_9"
    }
  ],
  "samplers": [
    {
      "magFilter": 9729,
      "minFilter": 9987,
      "wrapS": 10497,
      "wrapT": 10497
    }
  ],
  "scene": 0,
  "scenes": [
    {
      "name": "Sketchfab_Scene",
      "nodes": [
        0
      ]
    }
  ],
  "textures": [
    {
      "sampler": 0,
      "source": 0
    },
    {
      "sampler": 0,
      "source": 1
    }
  ]
}
